<?xml version="1.0" encoding="UTF-8"?>
<svg xmlns="http://www.w3.org/2000/svg" viewBox="0 0 128 128" width="128" height="128">
  <!-- 배경: 둥근 사각형 -->
  <rect x="4" y="4" width="120" height="120" rx="24" fill="#2d5a27"/>
  <rect x="8" y="8" width="112" height="112" rx="20" fill="#3a7d32"/>
  
  <!-- 화분 -->
  <path d="M44,90 L52,70 L76,70 L84,90 Z" fill="#c4673b" stroke="#8b4513" stroke-width="1.5"/>
  <rect x="48" y="66" width="32" height="6" rx="2" fill="#d4825a"/>
  
  <!-- 흙 -->
  <ellipse cx="64" cy="70" rx="14" ry="4" fill="#5c3317"/>
  
  <!-- 줄기 -->
  <path d="M64,68 C64,68 64,42 64,38" stroke="#228B22" stroke-width="3" fill="none" stroke-linecap="round"/>
  <path d="M64,55 C58,48 50,48 48,52" stroke="#228B22" stroke-width="2.5" fill="none" stroke-linecap="round"/>
  <path d="M64,48 C70,42 78,42 80,46" stroke="#228B22" stroke-width="2.5" fill="none" stroke-linecap="round"/>
  
  <!-- 잎사귀들 -->
  <ellipse cx="46" cy="50" rx="8" ry="5" fill="#32CD32" transform="rotate(-30 46 50)"/>
  <ellipse cx="82" cy="44" rx="8" ry="5" fill="#32CD32" transform="rotate(25 82 44)"/>
  <ellipse cx="64" cy="36" rx="6" ry="9" fill="#2ECC40"/>
  
  <!-- 꽃 -->
  <circle cx="64" cy="28" r="4" fill="#FFD700"/>
  <circle cx="60" cy="25" r="3" fill="#FF69B4"/>
  <circle cx="68" cy="25" r="3" fill="#FF69B4"/>
  <circle cx="62" cy="30" r="3" fill="#FF69B4"/>
  <circle cx="66" cy="30" r="3" fill="#FF69B4"/>
  
  <!-- 반짝이 -->
  <circle cx="30" cy="30" r="2" fill="#FFD700" opacity="0.8"/>
  <circle cx="98" cy="22" r="1.5" fill="#FFD700" opacity="0.6"/>
  <circle cx="24" cy="60" r="1.5" fill="#FFD700" opacity="0.5"/>
  <circle cx="100" cy="65" r="2" fill="#FFD700" opacity="0.7"/>
  
  <!-- 타이틀 텍스트 -->
  <text x="64" y="112" text-anchor="middle" font-family="Arial, sans-serif" font-size="11" font-weight="bold" fill="white">🌱 식물채집가</text>
</svg>
